<mxfile host="app.diagrams.net" modified="2023-10-19T21:32:57.390Z" agent="Mozilla/5.0 (Macintosh; Intel Mac OS X 10.15; rv:109.0) Gecko/20100101 Firefox/118.0" etag="J8aB2XmsA5zY5oqLZheE" version="22.0.5" type="github">
  <diagram name="Page-1" id="2YBvvXClWsGukQMizWep">
    <mxGraphModel dx="1750" dy="589" grid="1" gridSize="10" guides="1" tooltips="1" connect="1" arrows="1" fold="1" page="1" pageScale="1" pageWidth="850" pageHeight="1100" math="0" shadow="0">
      <root>
        <mxCell id="0" />
        <mxCell id="1" parent="0" />
        <mxCell id="aM9ryv3xv72pqoxQDRHE-1" value="Scheduler" style="shape=umlLifeline;perimeter=lifelinePerimeter;whiteSpace=wrap;html=1;container=0;dropTarget=0;collapsible=0;recursiveResize=0;outlineConnect=0;portConstraint=eastwest;newEdgeStyle={&quot;edgeStyle&quot;:&quot;elbowEdgeStyle&quot;,&quot;elbow&quot;:&quot;vertical&quot;,&quot;curved&quot;:0,&quot;rounded&quot;:0};" parent="1" vertex="1">
          <mxGeometry x="200" y="60" width="100" height="300" as="geometry" />
        </mxCell>
        <mxCell id="aM9ryv3xv72pqoxQDRHE-2" value="" style="html=1;points=[];perimeter=orthogonalPerimeter;outlineConnect=0;targetShapes=umlLifeline;portConstraint=eastwest;newEdgeStyle={&quot;edgeStyle&quot;:&quot;elbowEdgeStyle&quot;,&quot;elbow&quot;:&quot;vertical&quot;,&quot;curved&quot;:0,&quot;rounded&quot;:0};" parent="aM9ryv3xv72pqoxQDRHE-1" vertex="1">
          <mxGeometry x="45" y="70" width="10" height="190" as="geometry" />
        </mxCell>
        <mxCell id="aM9ryv3xv72pqoxQDRHE-5" value="Database" style="shape=umlLifeline;perimeter=lifelinePerimeter;whiteSpace=wrap;html=1;container=0;dropTarget=0;collapsible=0;recursiveResize=0;outlineConnect=0;portConstraint=eastwest;newEdgeStyle={&quot;edgeStyle&quot;:&quot;elbowEdgeStyle&quot;,&quot;elbow&quot;:&quot;vertical&quot;,&quot;curved&quot;:0,&quot;rounded&quot;:0};" parent="1" vertex="1">
          <mxGeometry x="380" y="60" width="100" height="300" as="geometry" />
        </mxCell>
        <mxCell id="aM9ryv3xv72pqoxQDRHE-6" value="" style="html=1;points=[];perimeter=orthogonalPerimeter;outlineConnect=0;targetShapes=umlLifeline;portConstraint=eastwest;newEdgeStyle={&quot;edgeStyle&quot;:&quot;elbowEdgeStyle&quot;,&quot;elbow&quot;:&quot;vertical&quot;,&quot;curved&quot;:0,&quot;rounded&quot;:0};" parent="aM9ryv3xv72pqoxQDRHE-5" vertex="1">
          <mxGeometry x="45" y="80" width="10" height="170" as="geometry" />
        </mxCell>
        <mxCell id="aM9ryv3xv72pqoxQDRHE-9" value="Invalid" style="html=1;verticalAlign=bottom;endArrow=block;edgeStyle=elbowEdgeStyle;elbow=horizontal;curved=0;rounded=0;dashed=1;" parent="1" edge="1">
          <mxGeometry x="-0.8384" y="10" relative="1" as="geometry">
            <mxPoint x="425.5" y="170" as="sourcePoint" />
            <Array as="points">
              <mxPoint x="300.5" y="170" />
              <mxPoint x="350.5" y="170" />
            </Array>
            <mxPoint x="110" y="170" as="targetPoint" />
            <mxPoint as="offset" />
          </mxGeometry>
        </mxCell>
        <mxCell id="iUsyg86T50dlSugl5ncO-1" value="Patient" style="shape=umlActor;verticalLabelPosition=bottom;verticalAlign=top;html=1;outlineConnect=0;" vertex="1" parent="1">
          <mxGeometry x="-10" y="30" width="30" height="60" as="geometry" />
        </mxCell>
        <mxCell id="iUsyg86T50dlSugl5ncO-4" value="Notification System" style="shape=umlLifeline;perimeter=lifelinePerimeter;whiteSpace=wrap;html=1;container=0;dropTarget=0;collapsible=0;recursiveResize=0;outlineConnect=0;portConstraint=eastwest;newEdgeStyle={&quot;edgeStyle&quot;:&quot;elbowEdgeStyle&quot;,&quot;elbow&quot;:&quot;vertical&quot;,&quot;curved&quot;:0,&quot;rounded&quot;:0};" vertex="1" parent="1">
          <mxGeometry x="550" y="60" width="100" height="300" as="geometry" />
        </mxCell>
        <mxCell id="iUsyg86T50dlSugl5ncO-5" value="" style="html=1;points=[];perimeter=orthogonalPerimeter;outlineConnect=0;targetShapes=umlLifeline;portConstraint=eastwest;newEdgeStyle={&quot;edgeStyle&quot;:&quot;elbowEdgeStyle&quot;,&quot;elbow&quot;:&quot;vertical&quot;,&quot;curved&quot;:0,&quot;rounded&quot;:0};" vertex="1" parent="iUsyg86T50dlSugl5ncO-4">
          <mxGeometry x="45" y="80" width="10" height="170" as="geometry" />
        </mxCell>
        <mxCell id="iUsyg86T50dlSugl5ncO-7" value="Healthcare Management System" style="shape=umlLifeline;perimeter=lifelinePerimeter;whiteSpace=wrap;html=1;container=0;dropTarget=0;collapsible=0;recursiveResize=0;outlineConnect=0;portConstraint=eastwest;newEdgeStyle={&quot;edgeStyle&quot;:&quot;elbowEdgeStyle&quot;,&quot;elbow&quot;:&quot;vertical&quot;,&quot;curved&quot;:0,&quot;rounded&quot;:0};" vertex="1" parent="1">
          <mxGeometry x="60" y="60" width="100" height="300" as="geometry" />
        </mxCell>
        <mxCell id="iUsyg86T50dlSugl5ncO-8" value="" style="html=1;points=[];perimeter=orthogonalPerimeter;outlineConnect=0;targetShapes=umlLifeline;portConstraint=eastwest;newEdgeStyle={&quot;edgeStyle&quot;:&quot;elbowEdgeStyle&quot;,&quot;elbow&quot;:&quot;vertical&quot;,&quot;curved&quot;:0,&quot;rounded&quot;:0};" vertex="1" parent="iUsyg86T50dlSugl5ncO-7">
          <mxGeometry x="45" y="70" width="10" height="190" as="geometry" />
        </mxCell>
        <mxCell id="iUsyg86T50dlSugl5ncO-9" value="Login" style="html=1;verticalAlign=bottom;startArrow=oval;endArrow=block;startSize=8;edgeStyle=elbowEdgeStyle;elbow=vertical;curved=0;rounded=0;" edge="1" parent="iUsyg86T50dlSugl5ncO-7" target="iUsyg86T50dlSugl5ncO-8">
          <mxGeometry relative="1" as="geometry">
            <mxPoint x="-50" y="70" as="sourcePoint" />
          </mxGeometry>
        </mxCell>
        <mxCell id="iUsyg86T50dlSugl5ncO-12" value="" style="endArrow=classic;html=1;rounded=0;" edge="1" parent="1">
          <mxGeometry width="50" height="50" relative="1" as="geometry">
            <mxPoint x="115" y="140" as="sourcePoint" />
            <mxPoint x="425" y="140" as="targetPoint" />
          </mxGeometry>
        </mxCell>
        <mxCell id="iUsyg86T50dlSugl5ncO-13" value="Verify Credentials" style="edgeLabel;html=1;align=center;verticalAlign=middle;resizable=0;points=[];" vertex="1" connectable="0" parent="iUsyg86T50dlSugl5ncO-12">
          <mxGeometry x="-0.5871" y="3" relative="1" as="geometry">
            <mxPoint as="offset" />
          </mxGeometry>
        </mxCell>
        <mxCell id="iUsyg86T50dlSugl5ncO-14" value="Valid" style="html=1;verticalAlign=bottom;endArrow=block;edgeStyle=elbowEdgeStyle;elbow=vertical;curved=0;rounded=0;dashed=1;" edge="1" parent="1">
          <mxGeometry x="-0.8384" y="11" relative="1" as="geometry">
            <mxPoint x="425.5" y="209.5" as="sourcePoint" />
            <Array as="points">
              <mxPoint x="350.5" y="209.5" />
            </Array>
            <mxPoint x="110" y="209.5" as="targetPoint" />
            <mxPoint as="offset" />
          </mxGeometry>
        </mxCell>
        <mxCell id="iUsyg86T50dlSugl5ncO-16" value="Login Response" style="shape=umlFrame;whiteSpace=wrap;html=1;pointerEvents=0;" vertex="1" parent="1">
          <mxGeometry x="-70" y="150" width="520" height="70" as="geometry" />
        </mxCell>
        <mxCell id="iUsyg86T50dlSugl5ncO-17" value="" style="endArrow=none;dashed=1;html=1;rounded=0;" edge="1" parent="1" target="iUsyg86T50dlSugl5ncO-1">
          <mxGeometry width="50" height="50" relative="1" as="geometry">
            <mxPoint x="10" y="350" as="sourcePoint" />
            <mxPoint x="350" y="280" as="targetPoint" />
          </mxGeometry>
        </mxCell>
        <mxCell id="iUsyg86T50dlSugl5ncO-19" value="" style="endArrow=classic;html=1;rounded=0;" edge="1" parent="1">
          <mxGeometry width="50" height="50" relative="1" as="geometry">
            <mxPoint x="109.5" y="210.5" as="sourcePoint" />
            <mxPoint x="10" y="210.5" as="targetPoint" />
          </mxGeometry>
        </mxCell>
        <mxCell id="iUsyg86T50dlSugl5ncO-20" value="Load Account" style="edgeLabel;html=1;align=center;verticalAlign=middle;resizable=0;points=[];" vertex="1" connectable="0" parent="iUsyg86T50dlSugl5ncO-19">
          <mxGeometry x="0.3568" y="1" relative="1" as="geometry">
            <mxPoint x="29" y="-1" as="offset" />
          </mxGeometry>
        </mxCell>
        <mxCell id="iUsyg86T50dlSugl5ncO-21" value="" style="endArrow=classic;html=1;rounded=0;" edge="1" parent="1">
          <mxGeometry width="50" height="50" relative="1" as="geometry">
            <mxPoint x="110" y="170" as="sourcePoint" />
            <mxPoint x="10" y="170" as="targetPoint" />
          </mxGeometry>
        </mxCell>
        <mxCell id="iUsyg86T50dlSugl5ncO-22" value="Check input &lt;br&gt;Try again" style="edgeLabel;html=1;align=center;verticalAlign=middle;resizable=0;points=[];" vertex="1" connectable="0" parent="iUsyg86T50dlSugl5ncO-21">
          <mxGeometry x="-0.4526" y="-1" relative="1" as="geometry">
            <mxPoint x="-13" y="1" as="offset" />
          </mxGeometry>
        </mxCell>
        <mxCell id="iUsyg86T50dlSugl5ncO-23" value="" style="endArrow=none;dashed=1;html=1;rounded=0;exitX=0;exitY=0.671;exitDx=0;exitDy=0;exitPerimeter=0;" edge="1" parent="1">
          <mxGeometry width="50" height="50" relative="1" as="geometry">
            <mxPoint x="-70" y="190.97000000000003" as="sourcePoint" />
            <mxPoint x="450" y="190" as="targetPoint" />
          </mxGeometry>
        </mxCell>
        <mxCell id="iUsyg86T50dlSugl5ncO-24" value="" style="endArrow=classic;html=1;rounded=0;" edge="1" parent="1">
          <mxGeometry width="50" height="50" relative="1" as="geometry">
            <mxPoint x="111" y="240" as="sourcePoint" />
            <mxPoint x="425.5" y="240" as="targetPoint" />
          </mxGeometry>
        </mxCell>
        <mxCell id="iUsyg86T50dlSugl5ncO-25" value="&lt;div&gt;Retrieve Patient Records&lt;/div&gt;" style="edgeLabel;html=1;align=center;verticalAlign=middle;resizable=0;points=[];" vertex="1" connectable="0" parent="iUsyg86T50dlSugl5ncO-24">
          <mxGeometry x="-0.345" relative="1" as="geometry">
            <mxPoint x="106" as="offset" />
          </mxGeometry>
        </mxCell>
        <mxCell id="iUsyg86T50dlSugl5ncO-27" value="" style="endArrow=classic;html=1;rounded=0;" edge="1" parent="1" target="iUsyg86T50dlSugl5ncO-8">
          <mxGeometry width="50" height="50" relative="1" as="geometry">
            <mxPoint x="10" y="240" as="sourcePoint" />
            <mxPoint x="350" y="280" as="targetPoint" />
          </mxGeometry>
        </mxCell>
        <mxCell id="iUsyg86T50dlSugl5ncO-28" value="Load Dashboard" style="edgeLabel;html=1;align=center;verticalAlign=middle;resizable=0;points=[];" vertex="1" connectable="0" parent="iUsyg86T50dlSugl5ncO-27">
          <mxGeometry x="-0.2421" y="-1" relative="1" as="geometry">
            <mxPoint x="-76" y="-11" as="offset" />
          </mxGeometry>
        </mxCell>
        <mxCell id="iUsyg86T50dlSugl5ncO-29" value="" style="endArrow=classic;html=1;rounded=0;dashed=1;" edge="1" parent="1">
          <mxGeometry width="50" height="50" relative="1" as="geometry">
            <mxPoint x="429.5" y="259" as="sourcePoint" />
            <mxPoint x="109.5" y="259" as="targetPoint" />
          </mxGeometry>
        </mxCell>
        <mxCell id="iUsyg86T50dlSugl5ncO-30" value="Patient Info" style="edgeLabel;html=1;align=center;verticalAlign=middle;resizable=0;points=[];" vertex="1" connectable="0" parent="iUsyg86T50dlSugl5ncO-29">
          <mxGeometry x="-0.4469" y="3" relative="1" as="geometry">
            <mxPoint x="39" y="-3" as="offset" />
          </mxGeometry>
        </mxCell>
        <mxCell id="iUsyg86T50dlSugl5ncO-31" value="" style="endArrow=classic;html=1;rounded=0;" edge="1" parent="1" source="iUsyg86T50dlSugl5ncO-8">
          <mxGeometry width="50" height="50" relative="1" as="geometry">
            <mxPoint x="300" y="330" as="sourcePoint" />
            <mxPoint x="10" y="260" as="targetPoint" />
          </mxGeometry>
        </mxCell>
        <mxCell id="iUsyg86T50dlSugl5ncO-32" value="Display Patient Info" style="edgeLabel;html=1;align=center;verticalAlign=middle;resizable=0;points=[];" vertex="1" connectable="0" parent="iUsyg86T50dlSugl5ncO-31">
          <mxGeometry x="-0.3895" y="-2" relative="1" as="geometry">
            <mxPoint x="-26" y="-8" as="offset" />
          </mxGeometry>
        </mxCell>
        <mxCell id="iUsyg86T50dlSugl5ncO-33" value="" style="endArrow=classic;html=1;rounded=0;" edge="1" parent="1">
          <mxGeometry width="50" height="50" relative="1" as="geometry">
            <mxPoint x="10" y="287" as="sourcePoint" />
            <mxPoint x="110" y="287" as="targetPoint" />
          </mxGeometry>
        </mxCell>
        <mxCell id="iUsyg86T50dlSugl5ncO-34" value="Schedule Appointment" style="edgeLabel;html=1;align=center;verticalAlign=middle;resizable=0;points=[];" vertex="1" connectable="0" parent="iUsyg86T50dlSugl5ncO-33">
          <mxGeometry x="-0.2" y="-1" relative="1" as="geometry">
            <mxPoint x="-90" y="-9" as="offset" />
          </mxGeometry>
        </mxCell>
        <mxCell id="iUsyg86T50dlSugl5ncO-35" value="Request Available&lt;br&gt;Appointments" style="endArrow=classic;html=1;rounded=0;dashed=1;" edge="1" parent="1">
          <mxGeometry x="-0.2883" width="50" height="50" relative="1" as="geometry">
            <mxPoint x="110" y="287" as="sourcePoint" />
            <mxPoint x="250.5" y="287" as="targetPoint" />
            <mxPoint as="offset" />
          </mxGeometry>
        </mxCell>
        <mxCell id="iUsyg86T50dlSugl5ncO-36" value="" style="endArrow=classic;html=1;rounded=0;dashed=1;" edge="1" parent="1">
          <mxGeometry width="50" height="50" relative="1" as="geometry">
            <mxPoint x="249.5" y="287" as="sourcePoint" />
            <mxPoint x="429.5" y="287" as="targetPoint" />
          </mxGeometry>
        </mxCell>
        <mxCell id="iUsyg86T50dlSugl5ncO-37" value="Request Available &lt;br&gt;Times and Docs" style="edgeLabel;html=1;align=center;verticalAlign=middle;resizable=0;points=[];" vertex="1" connectable="0" parent="iUsyg86T50dlSugl5ncO-36">
          <mxGeometry x="0.3833" relative="1" as="geometry">
            <mxPoint x="-63" as="offset" />
          </mxGeometry>
        </mxCell>
        <mxCell id="iUsyg86T50dlSugl5ncO-38" value="" style="endArrow=classic;html=1;rounded=0;dashed=1;" edge="1" parent="1">
          <mxGeometry width="50" height="50" relative="1" as="geometry">
            <mxPoint x="429.5" y="321" as="sourcePoint" />
            <mxPoint x="249.5" y="321" as="targetPoint" />
          </mxGeometry>
        </mxCell>
        <mxCell id="iUsyg86T50dlSugl5ncO-39" value="Availablility" style="edgeLabel;html=1;align=center;verticalAlign=middle;resizable=0;points=[];" vertex="1" connectable="0" parent="iUsyg86T50dlSugl5ncO-38">
          <mxGeometry x="-0.3056" y="1" relative="1" as="geometry">
            <mxPoint x="23" y="-2" as="offset" />
          </mxGeometry>
        </mxCell>
        <mxCell id="iUsyg86T50dlSugl5ncO-40" value="" style="endArrow=classic;html=1;rounded=0;dashed=1;" edge="1" parent="1">
          <mxGeometry width="50" height="50" relative="1" as="geometry">
            <mxPoint x="250" y="320" as="sourcePoint" />
            <mxPoint x="109.5" y="320" as="targetPoint" />
          </mxGeometry>
        </mxCell>
        <mxCell id="iUsyg86T50dlSugl5ncO-43" value="Availability" style="edgeLabel;html=1;align=center;verticalAlign=middle;resizable=0;points=[];" vertex="1" connectable="0" parent="iUsyg86T50dlSugl5ncO-40">
          <mxGeometry x="-0.1032" y="-1" relative="1" as="geometry">
            <mxPoint x="23" y="1" as="offset" />
          </mxGeometry>
        </mxCell>
        <mxCell id="iUsyg86T50dlSugl5ncO-41" value="" style="endArrow=classic;html=1;rounded=0;" edge="1" parent="1" source="iUsyg86T50dlSugl5ncO-7">
          <mxGeometry width="50" height="50" relative="1" as="geometry">
            <mxPoint x="300" y="330" as="sourcePoint" />
            <mxPoint x="10" y="320" as="targetPoint" />
          </mxGeometry>
        </mxCell>
        <mxCell id="iUsyg86T50dlSugl5ncO-42" value="Display Availability" style="edgeLabel;html=1;align=center;verticalAlign=middle;resizable=0;points=[];" vertex="1" connectable="0" parent="iUsyg86T50dlSugl5ncO-41">
          <mxGeometry x="0.397" y="-1" relative="1" as="geometry">
            <mxPoint x="11" y="-9" as="offset" />
          </mxGeometry>
        </mxCell>
        <mxCell id="iUsyg86T50dlSugl5ncO-44" value="" style="endArrow=classic;html=1;rounded=0;" edge="1" parent="1" target="aM9ryv3xv72pqoxQDRHE-1">
          <mxGeometry width="50" height="50" relative="1" as="geometry">
            <mxPoint x="10" y="350" as="sourcePoint" />
            <mxPoint x="340" y="340" as="targetPoint" />
          </mxGeometry>
        </mxCell>
        <mxCell id="iUsyg86T50dlSugl5ncO-45" value="Submit Date/Time/Doc " style="edgeLabel;html=1;align=center;verticalAlign=middle;resizable=0;points=[];" vertex="1" connectable="0" parent="iUsyg86T50dlSugl5ncO-44">
          <mxGeometry x="-0.382" y="-1" relative="1" as="geometry">
            <mxPoint x="-121" y="-9" as="offset" />
          </mxGeometry>
        </mxCell>
        <mxCell id="iUsyg86T50dlSugl5ncO-46" value="" style="endArrow=classic;html=1;rounded=0;dashed=1;" edge="1" parent="1">
          <mxGeometry width="50" height="50" relative="1" as="geometry">
            <mxPoint x="249.5" y="350" as="sourcePoint" />
            <mxPoint x="429.5" y="350" as="targetPoint" />
          </mxGeometry>
        </mxCell>
        <mxCell id="iUsyg86T50dlSugl5ncO-47" value="Update Time slot" style="edgeLabel;html=1;align=center;verticalAlign=middle;resizable=0;points=[];" vertex="1" connectable="0" parent="iUsyg86T50dlSugl5ncO-46">
          <mxGeometry x="0.3611" y="3" relative="1" as="geometry">
            <mxPoint x="-61" as="offset" />
          </mxGeometry>
        </mxCell>
      </root>
    </mxGraphModel>
  </diagram>
</mxfile>
